<svg xmlns="http://www.w3.org/2000/svg" viewBox="0 0 512 512"><g id="Слой_2" data-name="Слой 2"><path d="M437 75C337-25 175.06-25 75 75s-100 261.94 0 362 261.92 100 362 0 100-261.94 0-362zm-10.7 325.47a257.31 257.31 0 00-38.23-28.31c8.91-30.78 14.19-64.66 15.44-99.87h75.24a221.23 221.23 0 01-52.45 128.18zm-393-128.18h75.25c1.25 35.21 6.53 69.09 15.44 99.87a257.31 257.31 0 00-38.23 28.31 221.31 221.31 0 01-52.5-128.16zm52.46-160.8A257.31 257.31 0 00124 139.82c-8.91 30.78-14.19 64.66-15.44 99.87h-75.3a221.31 221.31 0 0152.46-128.18zm154 31.68a221.75 221.75 0 01-76-19.26C177.49 88.32 203 45.61 239.69 35zm0 32.68v63.82h-98.61a384.24 384.24 0 0112.36-84.56 254.49 254.49 0 0086.18 20.76zm0 96.44v63.82a254.49 254.49 0 00-86.18 20.74 384.24 384.24 0 01-12.36-84.56zm0 96.5V477c-36.7-10.59-62.2-53.29-76-88.91a221.75 221.75 0 0175.93-19.28zm32.62 0a221.75 221.75 0 0176 19.26c-13.83 35.62-39.33 78.32-76 88.91zm0-32.68v-63.8h98.54a384.24 384.24 0 01-12.36 84.56 254.49 254.49 0 00-86.18-20.74zm0-96.44v-63.8a254.49 254.49 0 0086.18-20.74 384.24 384.24 0 0112.36 84.56zm0-96.5V35c36.7 10.59 62.2 53.3 76 88.91a221.75 221.75 0 01-76.07 19.28zm73.26-91.88a222.28 222.28 0 0157.82 36.92 223.39 223.39 0 01-26.24 19.91C369 88 358.63 68.44 345.57 51.31zm-210.79 56.85a223.39 223.39 0 01-26.24-19.91 222.28 222.28 0 0157.82-36.92C153.37 68.44 143 88 134.85 108.14zm0 295.72c8.13 20.13 18.52 39.7 31.58 56.83a222.28 222.28 0 01-57.82-36.92 224.49 224.49 0 0126.24-19.91zm242.3 0a224.49 224.49 0 0126.24 19.91 222.28 222.28 0 01-57.82 36.92c13.06-17.13 23.45-36.7 31.58-56.83zm26.34-164.17c-1.25-35.21-6.53-69.09-15.44-99.87a257.31 257.31 0 0038.23-28.31 221.31 221.31 0 0152.46 128.18z" fill="#0e1f56" id="Layer_1" data-name="Layer 1"/></g></svg>