<svg xmlns="http://www.w3.org/2000/svg" id="shveden" width="64" height="64"><defs><style>.cls-2{fill:none;stroke:#fff;stroke-linecap:round;stroke-linejoin:round;stroke-width:2px;fill-rule:evenodd}</style></defs><circle cx="32" cy="32" r="32" fill="#b9e2f7"/><path class="cls-2" d="M24.382 46.685c.246-2.239 1.041-7.578 12.4-10.047C48.894 34.008 51 29.487 51 28.807c0-.966-4.629-3.232-7.464-7.982-2.775-4.65-3.067-10.811-3.925-10.847s-1.085 4.773-13.461 7.5C12.415 20.5 12.185 30.129 12.182 30.112L26 52.992s-1.637-6.139-1.618-6.307z"/><path class="cls-2" d="M23.6 19.3l3.594 5.925c10.09-1.557 15.537-5.566 15.537-5.566m1.75 3.5s-4 3.69-15.267 5.468l4.336 7.108m-3.5 1.75l-4.391-7.2C19.135 34.2 19 39 19 39m-2.287-4.3a13.613 13.613 0 016.956-7.763L20.1 21.054"/></svg>