<svg xmlns="http://www.w3.org/2000/svg" id="naturalni" width="64" height="64"><circle cx="32" cy="32" r="32" fill="#bfe562"/><path d="M3761.97 2317.96a.978.978 0 00-.93-.94 50.639 50.639 0 00-8.24.44c-6.09.84-10.56 2.65-13.3 5.39a11.737 11.737 0 00-.67 15.89l-4.57 4.59a.979.979 0 101.39 1.38l4.57-4.58a11.8 11.8 0 0015.92-.67c2.74-2.74 4.56-7.2 5.39-13.28a49.106 49.106 0 00.44-8.22zm-7.22 20.12a9.836 9.836 0 01-13.14.66l1.76-1.8h6.53a.948.948 0 00.98-.94 1.008 1.008 0 00-.98-1.01h-4.57l4.28-4.25h6.53a.975.975 0 100-1.95h-4.57l4.57-4.56a.978.978 0 000-1.38.99.99 0 00-1.39 0l-4.55 4.56v-4.56a.992.992 0 00-1-.98.948.948 0 00-.94.98v6.52l-4.32 4.27v-4.56a.98.98 0 00-1.96 0v6.52l-1.76 1.75a9.8 9.8 0 01.66-13.12c4.25-4.24 13.12-5.3 19.15-5.27.02 3.23-.29 14.14-5.28 19.12z" transform="translate(-3717 -2297)" fill="#fff" fill-rule="evenodd"/></svg>