<svg xmlns="http://www.w3.org/2000/svg" id="inst" width="40" height="40"><rect id="bg" width="40" height="40" rx="19.188" ry="19.188" fill="#b9e2f7"/><path id="icon" d="M19.98 14.849a5.139 5.139 0 105.126 5.139 5.132 5.132 0 00-5.126-5.139zm0 8.475a3.336 3.336 0 113.327-3.336 3.33 3.33 0 01-3.327 3.335zM24.1 10.04c-1.837-.086-6.391-.082-8.23 0a5.965 5.965 0 00-4.193 1.62C9.751 13.586 10 16.181 10 19.987c0 3.9-.217 6.431 1.676 8.328 1.928 1.933 4.555 1.68 8.307 1.68 3.849 0 5.178 0 6.539-.526 1.851-.72 3.248-2.378 3.384-5.357.087-1.843.082-6.407 0-8.251-.164-3.516-2.046-5.648-5.808-5.822zm2.91 17c-1.26 1.262-3.007 1.15-7.05 1.15-4.163 0-5.831.062-7.049-1.162-1.4-1.4-1.149-3.647-1.149-7.055 0-4.611-.471-7.931 4.144-8.168 1.06-.037 1.373-.05 4.043-.05l.037.025c4.437 0 7.916-.466 8.125 4.161.048 1.056.058 1.373.058 4.045 0 4.124.078 5.808-1.16 7.055zm-1.7-13.6a1.2 1.2 0 11-1.2 1.2 1.2 1.2 0 011.199-1.195z" fill="#0e1f56" fill-rule="evenodd"/></svg>