<svg xmlns="http://www.w3.org/2000/svg" width="260" height="35.983" viewBox="0 0 259.896 35.969"><path id="babykit_logo" d="M175.614 14.516a3.089 3.089 0 00-1.494.354 2.461 2.461 0 00-1 .978 2.067 2.067 0 00-.87-1 2.7 2.7 0 00-1.374-.336 2.95 2.95 0 00-1.38.312 2.277 2.277 0 00-.936.888v-1.148h-.816v6.312h.852v-3.312a2.347 2.347 0 01.57-1.674 2.016 2.016 0 011.542-.606 1.742 1.742 0 011.35.516 2.143 2.143 0 01.474 1.5v3.576h.852v-3.312a2.362 2.362 0 01.564-1.674 2.011 2.011 0 011.548-.606 1.726 1.726 0 011.338.516 2.143 2.143 0 01.474 1.5v3.576h.852v-3.66a2.748 2.748 0 00-.678-2.016 2.509 2.509 0 00-1.866-.684zm9.415.048v3.312a2.349 2.349 0 01-.576 1.686 2.065 2.065 0 01-1.572.606 1.848 1.848 0 01-1.4-.516 2.11 2.11 0 01-.492-1.512v-3.576h-.852v3.66a2.444 2.444 0 002.664 2.712 2.779 2.779 0 001.344-.318 2.336 2.336 0 00.924-.894v1.152h.816v-6.312h-.852zm4.864 6.372a3.285 3.285 0 001.914-.486 1.528 1.528 0 00.689-1.314 1.354 1.354 0 00-.323-.96 1.79 1.79 0 00-.781-.492 11.074 11.074 0 00-1.211-.288 9.244 9.244 0 01-.96-.21 1.436 1.436 0 01-.583-.318.746.746 0 01-.234-.576.882.882 0 01.414-.756 2.158 2.158 0 011.231-.288 3.183 3.183 0 011.859.54l.373-.684a3.393 3.393 0 00-1.008-.426 4.777 4.777 0 00-1.224-.162 2.965 2.965 0 00-1.837.5 1.561 1.561 0 00-.66 1.3 1.414 1.414 0 00.331 1 1.8 1.8 0 00.8.51 10.5 10.5 0 001.235.294 8.286 8.286 0 01.925.2 1.519 1.519 0 01.575.3.685.685 0 01.228.546.859.859 0 01-.414.762 2.381 2.381 0 01-1.278.27 3.957 3.957 0 01-1.248-.2 3.214 3.214 0 01-1-.51l-.385.672a3.173 3.173 0 001.1.558 4.834 4.834 0 001.47.222zm7.349-1.056a1.264 1.264 0 01-.426.24 1.565 1.565 0 01-.51.084 1.07 1.07 0 01-.81-.294 1.192 1.192 0 01-.282-.858v-3.768h1.92v-.72h-1.92v-1.38h-.852v1.38h-1.128v.72h1.128V19.1a1.672 1.672 0 001.848 1.836 2.4 2.4 0 00.738-.114 1.612 1.612 0 00.594-.33zm8.208-5.364a3.152 3.152 0 00-1.4.3 2.311 2.311 0 00-.96.852v-3.7h-.852v8.9h.852v-3.304a2.289 2.289 0 01.594-1.674 2.157 2.157 0 011.614-.606 1.849 1.849 0 011.4.516 2.092 2.092 0 01.492 1.5v3.576h.852v-3.66a2.7 2.7 0 00-.7-2.01 2.58 2.58 0 00-1.89-.69zm6.91 0a4.488 4.488 0 00-1.416.222 3.409 3.409 0 00-1.152.63l.384.632a2.9 2.9 0 01.948-.546 3.386 3.386 0 011.152-.2 1.884 1.884 0 011.332.426 1.618 1.618 0 01.456 1.242v.384h-2a2.849 2.849 0 00-1.854.492 1.734 1.734 0 00.042 2.628 2.6 2.6 0 001.68.5 2.96 2.96 0 001.326-.276 1.952 1.952 0 00.846-.768v.984h.816v-3.902a2.388 2.388 0 00-.66-1.83 2.673 2.673 0 00-1.9-.618zm-.3 5.748a1.911 1.911 0 01-1.176-.318 1.032 1.032 0 01-.42-.87q0-1.128 1.62-1.128h1.98v1.032a1.97 1.97 0 01-.768.954 2.245 2.245 0 01-1.236.33zm9.3-5.7l-2.388 5.376-2.364-5.376h-.888l2.8 6.312h.88l2.808-6.312h-.84zm7.35 3.156a3.415 3.415 0 00-.4-1.662 2.894 2.894 0 00-1.092-1.134 3.051 3.051 0 00-1.572-.408 3.083 3.083 0 00-1.578.408 2.912 2.912 0 00-1.1 1.14 3.383 3.383 0 00-.4 1.656 3.267 3.267 0 00.42 1.656 2.984 2.984 0 001.17 1.146 3.5 3.5 0 001.722.414 3.549 3.549 0 001.386-.264 2.7 2.7 0 001.05-.768l-.48-.552a2.357 2.357 0 01-.852.618 2.721 2.721 0 01-1.08.21 2.509 2.509 0 01-1.728-.606 2.256 2.256 0 01-.756-1.59h5.28zm-3.06-2.472a2.162 2.162 0 011.542.582 2.286 2.286 0 01.7 1.518h-4.476a2.286 2.286 0 01.7-1.518 2.147 2.147 0 011.53-.582zm-52.712 18.884v-5.568h-4.656l-.082 2.112a13.7 13.7 0 01-.312 2.52 1.012 1.012 0 01-.864.936h-.36V36.4h.8v-1.524h5.652V36.4h.8v-2.268h-.984zm-3.96-3.408l.072-1.4h3.036v4.812h-3.936a1.883 1.883 0 00.6-1.194 15.725 15.725 0 00.228-2.214zm7.507-2.16l-.108 2.256q-.06 1.1-.144 1.776a3.123 3.123 0 01-.336 1.128.8.8 0 01-.744.456 1.644 1.644 0 01-.3-.048l-.06.732a2.448 2.448 0 00.612.1 1.319 1.319 0 001.284-1.056 11.594 11.594 0 00.456-3.024l.084-1.56h3.024v5.556h.852v-6.316h-4.62zm9.1 0a3.161 3.161 0 00-1.968.552 1.9 1.9 0 00-.72 1.608 1.927 1.927 0 00.4 1.248 2.13 2.13 0 001.128.7l-1.572 2.208h.924l1.464-2.088h2.22v2.088h.78v-6.316h-2.652zm-1.824 2.184q0-1.428 1.848-1.428h1.848v2.832h-1.908q-1.788 0-1.788-1.4zm12.684 4.188a3.25 3.25 0 001.452-.318 2.412 2.412 0 001.02-.93l-.636-.432a1.944 1.944 0 01-.792.7 2.4 2.4 0 01-1.044.228 2.472 2.472 0 01-1.23-.306 2.16 2.16 0 01-.852-.864 2.859 2.859 0 010-2.574 2.151 2.151 0 01.852-.87 2.472 2.472 0 011.23-.306 2.35 2.35 0 011.044.234 1.99 1.99 0 01.792.7l.636-.432a2.422 2.422 0 00-1.014-.93 3.243 3.243 0 00-1.458-.318 3.4 3.4 0 00-1.674.408 2.966 2.966 0 00-1.158 1.14 3.487 3.487 0 000 3.318 2.953 2.953 0 001.158 1.146 3.4 3.4 0 001.674.408zm8.779-6.372l-2.376 5.364-2.376-5.364h-.888l2.82 6.3-.276.612a2.179 2.179 0 01-.57.816 1.16 1.16 0 01-.738.24 1.572 1.572 0 01-1.152-.48l-.4.636a1.846 1.846 0 00.684.432 2.474 2.474 0 00.852.144 1.985 1.985 0 001.212-.372 3.018 3.018 0 00.888-1.26l3.156-7.068h-.84zm2.131 0v6.312h.852V29.32h3.96v5.556h.852v-6.312h-5.664zm13.535 3.156a3.415 3.415 0 00-.4-1.662 2.894 2.894 0 00-1.092-1.134 3.051 3.051 0 00-1.572-.408 3.083 3.083 0 00-1.578.408 2.912 2.912 0 00-1.1 1.14 3.383 3.383 0 00-.4 1.656 3.267 3.267 0 00.42 1.656 2.984 2.984 0 001.17 1.146 3.5 3.5 0 001.722.414 3.549 3.549 0 001.386-.264 2.7 2.7 0 001.05-.768l-.48-.552a2.357 2.357 0 01-.852.618 2.721 2.721 0 01-1.08.21 2.509 2.509 0 01-1.728-.606 2.256 2.256 0 01-.756-1.59h5.28zm-3.06-2.472a2.162 2.162 0 011.542.582 2.286 2.286 0 01.7 1.518H215.6a2.286 2.286 0 01.7-1.518 2.147 2.147 0 011.53-.582zm8.015-.732a2.975 2.975 0 00-1.422.336 2.626 2.626 0 00-1.014.96v-1.248h-.816V37.2h.852v-3.512a2.626 2.626 0 001.014.93 2.983 2.983 0 001.386.318 3.231 3.231 0 001.614-.4 2.885 2.885 0 001.122-1.134 3.638 3.638 0 000-3.348 2.876 2.876 0 00-1.128-1.134 3.243 3.243 0 00-1.608-.4zm-.06 5.664a2.382 2.382 0 01-1.206-.306 2.173 2.173 0 01-.84-.87 2.649 2.649 0 01-.306-1.284 2.614 2.614 0 01.306-1.278 2.226 2.226 0 01.84-.87 2.475 2.475 0 012.406 0 2.213 2.213 0 01.846.87 2.614 2.614 0 01.306 1.278 2.649 2.649 0 01-.308 1.28 2.161 2.161 0 01-.846.87 2.391 2.391 0 01-1.2.306zm4.76-2.18h3.144v-.748h-3.144V32zm11.309-3.432l-2.724 4.548-2.676-4.548h-.864v6.312h.78v-5l2.556 4.236h.384l2.556-4.224v4.992h.78v-6.32h-.792zm5.279-.048a4.488 4.488 0 00-1.416.222 3.409 3.409 0 00-1.152.63l.384.628a2.9 2.9 0 01.948-.546 3.386 3.386 0 011.152-.2 1.884 1.884 0 011.332.426 1.618 1.618 0 01.456 1.242v.384h-2a2.849 2.849 0 00-1.854.492 1.734 1.734 0 00.042 2.628 2.6 2.6 0 001.68.5 2.96 2.96 0 001.326-.276 1.952 1.952 0 00.846-.768v.984h.816v-3.902a2.388 2.388 0 00-.66-1.83 2.673 2.673 0 00-1.9-.618zm-.3 5.748a1.911 1.911 0 01-1.176-.318 1.032 1.032 0 01-.42-.87q0-1.128 1.62-1.128h1.98v1.028a1.97 1.97 0 01-.768.954 2.245 2.245 0 01-1.236.33zm11.239-5.7l-2.724 4.548-2.676-4.548h-.864v6.312h.78v-5l2.556 4.236h.384l2.556-4.224v4.992h.78v-6.32h-.792zM148 13h1v24h-1V13zM12.96 10.657c.02-.341 0-.673.008-1.015A1.506 1.506 0 0114.6 7.995L21.631 8h.942a1.519 1.519 0 011.6 1.6c.01.373 0 .736.011 1.107.01.211-.049.281-.276.281-1.778-.011-3.557-.013-5.348-.015-1.759 0-3.517-.013-5.286.005-.274.011-.334-.071-.314-.321zm23.429 1.691a3.167 3.167 0 00-2.7-1.364q-3.014 0-6.025-.006c-.431 0-.421 0-.431-.415-.022-.937.036-1.875-.043-2.811a3.111 3.111 0 00-2.03-2.533c-.225-.078-.441-.155-.654-.219l-12-.012a7.291 7.291 0 00-.808.327A2.9 2.9 0 0010.07 8c-.017.9-.007 1.8.007 2.7a.221.221 0 01-.274.271c-1.86-.012-3.736 0-5.6-.015a3.229 3.229 0 00-2.136.753 3.167 3.167 0 00-1.083 2.539c.008 3.594.016 7.178.022 10.771l.019 11.324a2.378 2.378 0 001.34 2.271 1.563 1.563 0 00.752.193c.234 0 .263.107.253.3s.01.4.022.6a1.454 1.454 0 001.446 1.258c1.628-.027 3.265-.006 4.893-.005a1.368 1.368 0 001.421-1.264c.02-.223.019-.445.019-.657 0-.146.04-.213.2-.2a.624.624 0 00.144 0l15.309.014c.643 0 .654 0 .655.638a1.413 1.413 0 001.356 1.49c1.688 0 3.385.012 5.071.005a1.364 1.364 0 001.354-1.3v-.029a.676.676 0 01.623-.927 1.4 1.4 0 001.07-1.284 2.745 2.745 0 00.028-.483l-.042-22.635a3.24 3.24 0 00-.55-1.98zm-10.18 15.063l-4.8-.006.009 4.81a.8.8 0 01-.8.8h-3.2a.806.806 0 01-.8-.8L16.6 27.4h-4.806a.8.8 0 01-.8-.8l-.006-3.2a.8.8 0 01.8-.8h4.8l-.01-4.808a.8.8 0 01.8-.8h3.2a.8.8 0 01.8.8L21.4 22.6h4.806a.8.8 0 01.8.8l.007 3.205a.8.8 0 01-.804.806zm30.691-5.39h3l-4.51-10.105h-2.84l-4.495 10.105h2.939l.8-1.963h4.3zm-4.261-4.071l1.309-3.234 1.31 3.234h-2.619zm8.31-6.035v10.106h2.835v-7.839h3.871v7.839h2.852V11.915h-9.559zm19.757 0h-9.08v2.267h3.129v7.839h2.835v-7.839h3.115v-2.267zm3.979 7.9v-1.851h4.525v-2.136h-4.526v-1.7h5.136v-2.213h-7.987v10.106h8.177v-2.209h-5.326zm12.789-7.9V16.3a4.3 4.3 0 01-1.8.346 1.71 1.71 0 01-1.925-1.946v-2.785h-2.838v3.1a3.758 3.758 0 001.128 2.939 4.721 4.721 0 003.261 1.022 6.938 6.938 0 002.168-.391v3.436h2.838V11.915h-2.833zm11.345 10.105h3.245l-3.216-5.226 3.188-4.879h-3.026l-2.431 3.927H105.2v-3.927h-2.87v10.106h2.87v-3.869h1.311zm12.662 0h3l-4.511-10.105h-2.837l-4.5 10.105h2.939l.8-1.963h4.308zm-4.263-4.071l1.311-3.234 1.308 3.234h-2.619zm-57.5 18.516l-.03-10.105h-2.376l-3.491 5.832-3.578-5.832h-2.372v10.106h2.647v-5.24l2.618 4.245h1.282l2.617-4.36.015 5.356h2.663zm10.458 0h3l-4.51-10.105h-2.847l-4.495 10.106h2.94l.8-1.963h4.307zM65.907 32.4l1.309-3.234 1.309 3.234h-2.618zm10.617-6.034l-.147 4.027a16.524 16.524 0 01-.174 2.086 3.115 3.115 0 01-.436 1.249.994.994 0 01-.873.448 1.757 1.757 0 01-.394-.044l-.16 2.339a5.715 5.715 0 001.31.173 2.5 2.5 0 001.934-.743 4.371 4.371 0 00.969-2.1 21.3 21.3 0 00.356-3.523l.06-1.645h2.924v7.838h2.838v-10.11h-8.207zm16.015 3.22h-2.358v-3.22h-2.836v10.1h4.815a4.869 4.869 0 003.157-.924 3.245 3.245 0 001.136-2.671 2.991 2.991 0 00-1.018-2.462 4.483 4.483 0 00-2.9-.83zm-.567 4.836h-1.79v-2.8h1.79q1.585 0 1.585 1.313a1.407 1.407 0 01-.428 1.1 1.655 1.655 0 01-1.157.39zm5.6 2.05h2.837V26.361h-2.835v10.105zm16.133-10.105V34.2h-2.633v-7.839h-2.836V34.2h-2.664v-7.839h-2.835v10.105h13.807V26.361h-2.839zM127 36.466h3l-4.511-10.105h-2.835l-4.5 10.105h2.946l.8-1.963h4.3zm-4.26-4.066l1.309-3.234 1.308 3.234h-2.617z" transform="translate(.026 -5)" fill="#0e1f56" fill-rule="evenodd"/></svg>