<svg xmlns="http://www.w3.org/2000/svg" id="ok" width="40" height="40"><rect id="bg" width="40" height="40" rx="19.188" ry="19.188" fill="#b9e2f7"/><path id="icon" d="M26.644 21.931a7.115 7.115 0 01-2.559 1.63 12.176 12.176 0 01-2.9.642c.15.16.22.239.314.331 1.344 1.332 2.7 2.658 4.035 3.994a1.3 1.3 0 01.3 1.549 1.594 1.594 0 01-1.497.923 1.462 1.462 0 01-.945-.476c-1.015-1.006-2.049-1.995-3.042-3.02-.29-.3-.429-.242-.685.018a208.662 208.662 0 01-3.1 3.07 1.314 1.314 0 01-1.57.277 1.563 1.563 0 01-.917-1.442 1.435 1.435 0 01.492-.967q2-1.964 3.985-3.935c.088-.087.17-.179.3-.315a9.163 9.163 0 01-4.84-1.7 6.39 6.39 0 01-.511-.414 1.34 1.34 0 01-.19-1.925 1.4 1.4 0 011.832-.405 2.836 2.836 0 01.4.233 8.032 8.032 0 008.8.079 2.4 2.4 0 01.857-.436 1.352 1.352 0 011.54.606 1.272 1.272 0 01-.099 1.683zm-6.69-2.289a5.826 5.826 0 115.945-5.75 5.871 5.871 0 01-5.945 5.75zM20 10.967a2.851 2.851 0 102.888 2.845A2.862 2.862 0 0020 10.967z" fill="#0e1f56" fill-rule="evenodd"/></svg>