<svg xmlns="http://www.w3.org/2000/svg" id="vk" width="40" height="40"><rect id="bg" width="40" height="40" rx="19.188" ry="19.188" fill="#b9e2f7"/><path id="icon" d="M28.954 25.386q-.089.6-1.668.6l-.552.014h-.567c-.769 0-1.2-.006-1.279-.019a3.731 3.731 0 01-1.758-1.341q-.639-.783-.71-.838a1.37 1.37 0 00-.888-.6H21.5a.819.819 0 00-.622.6 3.214 3.214 0 00-.159.876 2.437 2.437 0 01-.2 1.006 3.385 3.385 0 01-1.668.3h-.161a6.061 6.061 0 01-3.072-.913 9.392 9.392 0 01-2.823-2.758 38.816 38.816 0 01-3.5-6.337 3.109 3.109 0 01-.3-.976.18.18 0 01.035-.13q.088-.3 1.669-.3h.959a3.068 3.068 0 011.332.168 2.278 2.278 0 01.372.69 20.929 20.929 0 001.794 3.472l.462.634a.9.9 0 00.586.392h.088a.9.9 0 00.48-.858 6.53 6.53 0 00.106-1.249 6.112 6.112 0 00-.266-2.33 1.593 1.593 0 00-.995-.615q.231-.745 1.882-.82a5.408 5.408 0 01.765-.054q1.971 0 2.291.577a2.11 2.11 0 01.2 1.1v.28q-.107 1.566-.106 2.33a3.192 3.192 0 00.035.578q.072.988.479 1.006h.018a1.107 1.107 0 00.675-.429 14.362 14.362 0 001.243-1.92 18.479 18.479 0 001.047-2.2 1.068 1.068 0 01.427-.671 8.03 8.03 0 011.154-.037q1.208 0 2.327-.037h.088a.814.814 0 01.8.3 1 1 0 01.018.2 3.716 3.716 0 01-.532 1.491q-.462.727-1.19 1.715-.947 1.325-1.195 1.717a1.854 1.854 0 00-.32.857v.075a3.778 3.778 0 00.8 1.1q1.439 1.492 1.847 1.994a2.622 2.622 0 01.639 1.268.154.154 0 01-.054.093z" fill="#0e1f56" fill-rule="evenodd"/></svg>