<svg xmlns="http://www.w3.org/2000/svg" id="ytb" width="40" height="40"><rect id="bg" width="40" height="40" rx="19.188" ry="19.188" fill="#b9e2f7"/><path id="icon" d="M31.506 14.5a2.938 2.938 0 00-2.115-2.014C27.512 12 20 12 20 12s-7.512 0-9.39.471A3 3 0 008.494 14.5 28.756 28.756 0 008 20a28.65 28.65 0 00.494 5.5 2.939 2.939 0 002.115 2.014C12.507 28 20 28 20 28s7.512 0 9.39-.471a2.939 2.939 0 002.116-2.014 28.765 28.765 0 00.494-5.5 27.3 27.3 0 00-.494-5.515zm-13.9 8.922v-6.848L23.855 20z" fill="#0e1f56" fill-rule="evenodd"/></svg>