<?xml version="1.0" encoding="UTF-8"?> <svg xmlns="http://www.w3.org/2000/svg" viewBox="0 0 512 512"> <defs> <style>.cls-1{fill:#0e1f56;}</style> </defs> <title>globe</title> <g id="Слой_2" data-name="Слой 2"> <g id="Layer_1" data-name="Layer 1"> <path class="cls-1" d="M437,75C337-25,175.06-25,75,75S-25,336.94,75,437s261.92,100,362,0S537,175.06,437,75Zm-10.7,325.47a257.31,257.31,0,0,0-38.23-28.31c8.91-30.78,14.19-64.66,15.44-99.87h75.24a221.23,221.23,0,0,1-52.45,128.18Zm-393-128.18h75.25c1.25,35.21,6.53,69.09,15.44,99.87a257.31,257.31,0,0,0-38.23,28.31A221.31,221.31,0,0,1,33.26,272.31Zm52.46-160.8A257.31,257.31,0,0,0,124,139.82c-8.91,30.78-14.19,64.66-15.44,99.87H33.26A221.31,221.31,0,0,1,85.72,111.51Zm154,31.68a221.75,221.75,0,0,1-76-19.26C177.49,88.32,203,45.61,239.69,35Zm0,32.68v63.82H141.15a384.24,384.24,0,0,1,12.36-84.56A254.49,254.49,0,0,0,239.69,175.87Zm0,96.44v63.82a254.49,254.49,0,0,0-86.18,20.74,384.24,384.24,0,0,1-12.36-84.56Zm0,96.5V477c-36.7-10.59-62.2-53.29-76-88.91A221.75,221.75,0,0,1,239.69,368.81Zm32.62,0a221.75,221.75,0,0,1,76,19.26c-13.83,35.62-39.33,78.32-76,88.91Zm0-32.68V272.31h98.54a384.24,384.24,0,0,1-12.36,84.56,254.49,254.49,0,0,0-86.18-20.74Zm0-96.44V175.87a254.49,254.49,0,0,0,86.18-20.74,384.24,384.24,0,0,1,12.36,84.56Zm0-96.5V35c36.7,10.59,62.2,53.3,76,88.91A221.75,221.75,0,0,1,272.31,143.19Zm73.26-91.88a222.28,222.28,0,0,1,57.82,36.92,223.39,223.39,0,0,1-26.24,19.91C369,88,358.63,68.44,345.57,51.31ZM134.85,108.14a223.39,223.39,0,0,1-26.24-19.91,222.28,222.28,0,0,1,57.82-36.92C153.37,68.44,143,88,134.85,108.14Zm0,295.72c8.13,20.13,18.52,39.7,31.58,56.83a222.28,222.28,0,0,1-57.82-36.92A224.49,224.49,0,0,1,134.85,403.86Zm242.3,0a224.49,224.49,0,0,1,26.24,19.91,222.28,222.28,0,0,1-57.82,36.92c13.06-17.13,23.45-36.7,31.58-56.83Zm26.34-164.17c-1.25-35.21-6.53-69.09-15.44-99.87a257.31,257.31,0,0,0,38.23-28.31,221.31,221.31,0,0,1,52.46,128.18Z"></path> </g> </g> </svg> 