<?xml version="1.0" encoding="UTF-8"?> <svg xmlns="http://www.w3.org/2000/svg" id="naturalni" width="64" height="64" viewBox="0 0 64 64"> <defs> <style> .cls-1 { fill: #bfe562; } .cls-2 { fill: #fff; fill-rule: evenodd; } </style> </defs> <circle class="cls-1" cx="32" cy="32" r="32"></circle> <path class="cls-2" d="M3761.97,2317.96a0.978,0.978,0,0,0-.93-0.94,50.639,50.639,0,0,0-8.24.44c-6.09.84-10.56,2.65-13.3,5.39a11.737,11.737,0,0,0-.67,15.89l-4.57,4.59a0.979,0.979,0,1,0,1.39,1.38l4.57-4.58a11.8,11.8,0,0,0,15.92-.67c2.74-2.74,4.56-7.2,5.39-13.28A49.106,49.106,0,0,0,3761.97,2317.96Zm-7.22,20.12a9.836,9.836,0,0,1-13.14.66l1.76-1.8h6.53a0.948,0.948,0,0,0,.98-0.94,1.008,1.008,0,0,0-.98-1.01h-4.57l4.28-4.25h6.53a0.975,0.975,0,1,0,0-1.95h-4.57l4.57-4.56a0.978,0.978,0,0,0,0-1.38,0.99,0.99,0,0,0-1.39,0l-4.55,4.56v-4.56a0.992,0.992,0,0,0-1-.98,0.948,0.948,0,0,0-.94.98v6.52l-4.32,4.27v-4.56a0.98,0.98,0,0,0-1.96,0v6.52l-1.76,1.75a9.8,9.8,0,0,1,.66-13.12c4.25-4.24,13.12-5.3,19.15-5.27C3760.05,2322.19,3759.74,2333.1,3754.75,2338.08Z" transform="translate(-3717 -2297)"></path> </svg> 