<?xml version="1.0" encoding="UTF-8"?> <svg xmlns="http://www.w3.org/2000/svg" id="inst" width="40" height="40" viewBox="0 0 40 40"> <defs> <style> .cls-1 { fill: #b9e2f7; } .cls-2 { fill: #0e1f56; fill-rule: evenodd; } </style> </defs> <rect id="bg" class="cls-1" width="40" height="40" rx="19.188" ry="19.188"></rect> <path id="icon" class="cls-2" d="M19.98,14.849a5.139,5.139,0,1,0,5.126,5.139,5.132,5.132,0,0,0-5.126-5.139h0Zm0,8.475a3.336,3.336,0,1,1,3.327-3.336A3.33,3.33,0,0,1,19.98,23.323ZM24.1,10.04c-1.837-.086-6.391-0.082-8.23,0a5.965,5.965,0,0,0-4.193,1.62C9.751,13.586,10,16.181,10,19.987c0,3.9-.217,6.431,1.676,8.328,1.928,1.933,4.555,1.68,8.307,1.68,3.849,0,5.178,0,6.539-.526,1.851-.72,3.248-2.378,3.384-5.357,0.087-1.843.082-6.407,0-8.251-0.164-3.516-2.046-5.648-5.808-5.822h0Zm2.91,17c-1.26,1.262-3.007,1.15-7.05,1.15-4.163,0-5.831.062-7.049-1.162-1.4-1.4-1.149-3.647-1.149-7.055,0-4.611-.471-7.931,4.144-8.168,1.06-.037,1.373-0.05,4.043-0.05l0.037,0.025c4.437,0,7.916-.466,8.125,4.161,0.048,1.056.058,1.373,0.058,4.045,0,4.124.078,5.808-1.16,7.055h0Zm-1.7-13.6a1.2,1.2,0,1,1-1.2,1.2A1.2,1.2,0,0,1,25.309,13.445Z"></path> </svg> 