<?xml version="1.0" encoding="UTF-8"?> <svg xmlns="http://www.w3.org/2000/svg" width="260" height="35.983" viewBox="0 0 259.896 35.969"> <defs> <style> .cls-1 { fill: #0e1f56; fill-rule: evenodd; } </style> </defs> <path id="babykit_logo" class="cls-1" d="M175.614,14.516a3.089,3.089,0,0,0-1.494.354,2.461,2.461,0,0,0-1,.978,2.067,2.067,0,0,0-.87-1,2.7,2.7,0,0,0-1.374-.336,2.95,2.95,0,0,0-1.38.312,2.277,2.277,0,0,0-.936.888V14.564h-0.816v6.312h0.852V17.564a2.347,2.347,0,0,1,.57-1.674,2.016,2.016,0,0,1,1.542-.606,1.742,1.742,0,0,1,1.35.516,2.143,2.143,0,0,1,.474,1.5v3.576h0.852V17.564a2.362,2.362,0,0,1,.564-1.674,2.011,2.011,0,0,1,1.548-.606,1.726,1.726,0,0,1,1.338.516,2.143,2.143,0,0,1,.474,1.5v3.576h0.852v-3.66a2.748,2.748,0,0,0-.678-2.016,2.509,2.509,0,0,0-1.866-.684h0Zm9.415,0.048v3.312a2.349,2.349,0,0,1-.576,1.686,2.065,2.065,0,0,1-1.572.606,1.848,1.848,0,0,1-1.4-.516,2.11,2.11,0,0,1-.492-1.512V14.564h-0.852v3.66a2.444,2.444,0,0,0,2.664,2.712,2.779,2.779,0,0,0,1.344-.318,2.336,2.336,0,0,0,.924-0.894v1.152h0.816V14.564h-0.852Zm4.864,6.372a3.285,3.285,0,0,0,1.914-.486,1.528,1.528,0,0,0,.689-1.314,1.354,1.354,0,0,0-.323-0.96,1.79,1.79,0,0,0-.781-0.492,11.074,11.074,0,0,0-1.211-.288,9.244,9.244,0,0,1-.96-0.21,1.436,1.436,0,0,1-.583-0.318,0.746,0.746,0,0,1-.234-0.576,0.882,0.882,0,0,1,.414-0.756,2.158,2.158,0,0,1,1.231-.288,3.183,3.183,0,0,1,1.859.54l0.373-.684a3.393,3.393,0,0,0-1.008-.426,4.777,4.777,0,0,0-1.224-.162,2.965,2.965,0,0,0-1.837.5,1.561,1.561,0,0,0-.66,1.3,1.414,1.414,0,0,0,.331,1,1.8,1.8,0,0,0,.8.51,10.5,10.5,0,0,0,1.235.294,8.286,8.286,0,0,1,.925.2,1.519,1.519,0,0,1,.575.3,0.685,0.685,0,0,1,.228.546,0.859,0.859,0,0,1-.414.762,2.381,2.381,0,0,1-1.278.27,3.957,3.957,0,0,1-1.248-.2,3.214,3.214,0,0,1-1-.51l-0.385.672a3.173,3.173,0,0,0,1.1.558,4.834,4.834,0,0,0,1.47.222h0Zm7.349-1.056a1.264,1.264,0,0,1-.426.24,1.565,1.565,0,0,1-.51.084,1.07,1.07,0,0,1-.81-0.294,1.192,1.192,0,0,1-.282-0.858V15.284h1.92v-0.72h-1.92v-1.38h-0.852v1.38h-1.128v0.72h1.128V19.1a1.672,1.672,0,0,0,1.848,1.836,2.4,2.4,0,0,0,.738-0.114,1.612,1.612,0,0,0,.594-0.33Zm8.208-5.364a3.152,3.152,0,0,0-1.4.3,2.311,2.311,0,0,0-.96.852v-3.7h-0.852v8.9h0.852V17.564a2.289,2.289,0,0,1,.594-1.674,2.157,2.157,0,0,1,1.614-.606,1.849,1.849,0,0,1,1.4.516,2.092,2.092,0,0,1,.492,1.5v3.576h0.852v-3.66a2.7,2.7,0,0,0-.7-2.01,2.58,2.58,0,0,0-1.89-.69h0Zm6.91,0a4.488,4.488,0,0,0-1.416.222,3.409,3.409,0,0,0-1.152.63L210.176,16a2.9,2.9,0,0,1,.948-0.546,3.386,3.386,0,0,1,1.152-.2,1.884,1.884,0,0,1,1.332.426,1.618,1.618,0,0,1,.456,1.242v0.384h-2a2.849,2.849,0,0,0-1.854.492,1.734,1.734,0,0,0,.042,2.628,2.6,2.6,0,0,0,1.68.5,2.96,2.96,0,0,0,1.326-.276,1.952,1.952,0,0,0,.846-0.768v0.984h0.816V16.964a2.388,2.388,0,0,0-.66-1.83,2.673,2.673,0,0,0-1.9-.618h0Zm-0.3,5.748a1.911,1.911,0,0,1-1.176-.318,1.032,1.032,0,0,1-.42-0.87q0-1.128,1.62-1.128h1.98V18.98a1.97,1.97,0,0,1-.768.954,2.245,2.245,0,0,1-1.236.33h0Zm9.3-5.7-2.388,5.376-2.364-5.376h-0.888l2.8,6.312H219.4l2.808-6.312h-0.84Zm7.35,3.156a3.415,3.415,0,0,0-.4-1.662,2.894,2.894,0,0,0-1.092-1.134,3.051,3.051,0,0,0-1.572-.408,3.083,3.083,0,0,0-1.578.408,2.912,2.912,0,0,0-1.1,1.14,3.383,3.383,0,0,0-.4,1.656,3.267,3.267,0,0,0,.42,1.656,2.984,2.984,0,0,0,1.17,1.146,3.5,3.5,0,0,0,1.722.414,3.549,3.549,0,0,0,1.386-.264,2.7,2.7,0,0,0,1.05-.768l-0.48-.552a2.357,2.357,0,0,1-.852.618,2.721,2.721,0,0,1-1.08.21,2.509,2.509,0,0,1-1.728-.606,2.256,2.256,0,0,1-.756-1.59h5.28Zm-3.06-2.472a2.162,2.162,0,0,1,1.542.582,2.286,2.286,0,0,1,.7,1.518h-4.476a2.286,2.286,0,0,1,.7-1.518,2.147,2.147,0,0,1,1.53-.582h0ZM172.938,34.132V28.564h-4.656L168.2,30.676a13.7,13.7,0,0,1-.312,2.52,1.012,1.012,0,0,1-.864.936h-0.36V36.4h0.8V34.876h5.652V36.4h0.8V34.132h-0.984Zm-3.96-3.408,0.072-1.4h3.036v4.812H168.15a1.883,1.883,0,0,0,.6-1.194,15.725,15.725,0,0,0,.228-2.214h0Zm7.507-2.16-0.108,2.256q-0.06,1.1-.144,1.776a3.123,3.123,0,0,1-.336,1.128,0.8,0.8,0,0,1-.744.456,1.644,1.644,0,0,1-.3-0.048l-0.06.732a2.448,2.448,0,0,0,.612.1,1.319,1.319,0,0,0,1.284-1.056,11.594,11.594,0,0,0,.456-3.024l0.084-1.56h3.024v5.556h0.852V28.564h-4.62Zm9.1,0a3.161,3.161,0,0,0-1.968.552,1.9,1.9,0,0,0-.72,1.608,1.927,1.927,0,0,0,.4,1.248,2.13,2.13,0,0,0,1.128.7l-1.572,2.208h0.924l1.464-2.088h2.22v2.088h0.78V28.564h-2.652Zm-1.824,2.184q0-1.428,1.848-1.428h1.848v2.832h-1.908q-1.788,0-1.788-1.4h0Zm12.684,4.188a3.25,3.25,0,0,0,1.452-.318,2.412,2.412,0,0,0,1.02-.93l-0.636-.432a1.944,1.944,0,0,1-.792.7,2.4,2.4,0,0,1-1.044.228,2.472,2.472,0,0,1-1.23-.306,2.16,2.16,0,0,1-.852-0.864,2.859,2.859,0,0,1,0-2.574,2.151,2.151,0,0,1,.852-0.87,2.472,2.472,0,0,1,1.23-.306,2.35,2.35,0,0,1,1.044.234,1.99,1.99,0,0,1,.792.7l0.636-.432a2.422,2.422,0,0,0-1.014-.93,3.243,3.243,0,0,0-1.458-.318,3.4,3.4,0,0,0-1.674.408,2.966,2.966,0,0,0-1.158,1.14,3.487,3.487,0,0,0,0,3.318,2.953,2.953,0,0,0,1.158,1.146,3.4,3.4,0,0,0,1.674.408h0Zm8.779-6.372-2.376,5.364-2.376-5.364h-0.888l2.82,6.3-0.276.612a2.179,2.179,0,0,1-.57.816,1.16,1.16,0,0,1-.738.24,1.572,1.572,0,0,1-1.152-.48l-0.4.636a1.846,1.846,0,0,0,.684.432,2.474,2.474,0,0,0,.852.144,1.985,1.985,0,0,0,1.212-.372,3.018,3.018,0,0,0,.888-1.26l3.156-7.068h-0.84Zm2.131,0v6.312h0.852V29.32h3.96v5.556h0.852V28.564h-5.664Zm13.535,3.156a3.415,3.415,0,0,0-.4-1.662,2.894,2.894,0,0,0-1.092-1.134,3.051,3.051,0,0,0-1.572-.408,3.083,3.083,0,0,0-1.578.408,2.912,2.912,0,0,0-1.1,1.14,3.383,3.383,0,0,0-.4,1.656,3.267,3.267,0,0,0,.42,1.656,2.984,2.984,0,0,0,1.17,1.146,3.5,3.5,0,0,0,1.722.414,3.549,3.549,0,0,0,1.386-.264,2.7,2.7,0,0,0,1.05-.768l-0.48-.552a2.357,2.357,0,0,1-.852.618,2.721,2.721,0,0,1-1.08.21,2.509,2.509,0,0,1-1.728-.606,2.256,2.256,0,0,1-.756-1.59h5.28Zm-3.06-2.472a2.162,2.162,0,0,1,1.542.582,2.286,2.286,0,0,1,.7,1.518H215.6a2.286,2.286,0,0,1,.7-1.518,2.147,2.147,0,0,1,1.53-.582h0Zm8.015-.732a2.975,2.975,0,0,0-1.422.336,2.626,2.626,0,0,0-1.014.96V28.564h-0.816V37.2h0.852V33.688a2.626,2.626,0,0,0,1.014.93,2.983,2.983,0,0,0,1.386.318,3.231,3.231,0,0,0,1.614-.4,2.885,2.885,0,0,0,1.122-1.134,3.638,3.638,0,0,0,0-3.348,2.876,2.876,0,0,0-1.128-1.134,3.243,3.243,0,0,0-1.608-.4h0Zm-0.06,5.664a2.382,2.382,0,0,1-1.206-.306,2.173,2.173,0,0,1-.84-0.87,2.649,2.649,0,0,1-.306-1.284,2.614,2.614,0,0,1,.306-1.278,2.226,2.226,0,0,1,.84-0.87,2.475,2.475,0,0,1,2.406,0,2.213,2.213,0,0,1,.846.87,2.614,2.614,0,0,1,.306,1.278A2.649,2.649,0,0,1,227.829,33a2.161,2.161,0,0,1-.846.87,2.391,2.391,0,0,1-1.2.306h0ZM230.545,32h3.144V31.252h-3.144V32Zm11.309-3.432-2.724,4.548-2.676-4.548H235.59v6.312h0.78v-5l2.556,4.236h0.384l2.556-4.224v4.992h0.78V28.564h-0.792Zm5.279-.048a4.488,4.488,0,0,0-1.416.222,3.409,3.409,0,0,0-1.152.63L244.949,30a2.9,2.9,0,0,1,.948-0.546,3.386,3.386,0,0,1,1.152-.2,1.884,1.884,0,0,1,1.332.426,1.618,1.618,0,0,1,.456,1.242v0.384h-2a2.849,2.849,0,0,0-1.854.492,1.734,1.734,0,0,0,.042,2.628,2.6,2.6,0,0,0,1.68.5,2.96,2.96,0,0,0,1.326-.276,1.952,1.952,0,0,0,.846-0.768v0.984h0.816V30.964a2.388,2.388,0,0,0-.66-1.83,2.673,2.673,0,0,0-1.9-.618h0Zm-0.3,5.748a1.911,1.911,0,0,1-1.176-.318,1.032,1.032,0,0,1-.42-0.87q0-1.128,1.62-1.128h1.98V32.98a1.97,1.97,0,0,1-.768.954,2.245,2.245,0,0,1-1.236.33h0Zm11.239-5.7-2.724,4.548-2.676-4.548h-0.864v6.312h0.78v-5l2.556,4.236h0.384l2.556-4.224v4.992h0.78V28.564h-0.792ZM148,13h1V37h-1V13ZM12.96,10.657c0.02-.341,0-0.673.008-1.015A1.506,1.506,0,0,1,14.6,7.995L21.631,8c0.319,0,.625,0,0.942,0a1.519,1.519,0,0,1,1.6,1.6c0.01,0.373,0,.736.011,1.107,0.01,0.211-.049.281-0.276,0.281-1.778-.011-3.557-0.013-5.348-0.015-1.759,0-3.517-.013-5.286.005C13,10.989,12.94,10.907,12.96,10.657Zm23.429,1.691a3.167,3.167,0,0,0-2.7-1.364q-3.014,0-6.025-.006c-0.431,0-.421,0-0.431-0.415-0.022-.937.036-1.875-0.043-2.811A3.111,3.111,0,0,0,25.16,5.219C24.935,5.141,24.719,5.064,24.506,5l-12-.012a7.291,7.291,0,0,0-.808.327A2.9,2.9,0,0,0,10.07,8c-0.017.9-.007,1.8,0.007,2.7a0.221,0.221,0,0,1-.274.271c-1.86-.012-3.736,0-5.6-0.015a3.229,3.229,0,0,0-2.136.753A3.167,3.167,0,0,0,.984,14.248C0.992,17.842,1,21.426,1.006,25.019c0.006,3.778.013,7.545,0.019,11.324a2.378,2.378,0,0,0,1.34,2.271,1.563,1.563,0,0,0,.752.193c0.234,0,.263.107,0.253,0.3s0.01,0.4.022,0.6a1.454,1.454,0,0,0,1.446,1.258c1.628-.027,3.265-0.006,4.893-0.005a1.368,1.368,0,0,0,1.421-1.264c0.02-.223.019-0.445,0.019-0.657,0-.146.04-0.213,0.2-0.2a0.624,0.624,0,0,0,.144,0l15.309,0.014c0.643,0,.654,0,0.655.638a1.413,1.413,0,0,0,1.356,1.49c1.688,0,3.385.012,5.071,0.005a1.364,1.364,0,0,0,1.354-1.3c0-.01,0-0.019,0-0.029a0.676,0.676,0,0,1,.623-0.927,1.4,1.4,0,0,0,1.07-1.284,2.745,2.745,0,0,0,.028-0.483q-0.021-11.318-.042-22.635A3.24,3.24,0,0,0,36.389,12.348ZM26.209,27.411l-4.8-.006,0.009,4.81a0.8,0.8,0,0,1-.8.8l-3.2,0a0.806,0.806,0,0,1-.8-0.8L16.6,27.4l-4.806,0a0.8,0.8,0,0,1-.8-0.8l-0.006-3.2a0.8,0.8,0,0,1,.8-0.8l4.8,0-0.01-4.808a0.8,0.8,0,0,1,.8-0.8l3.2,0a0.8,0.8,0,0,1,.8.8L21.4,22.6l4.806,0a0.8,0.8,0,0,1,.8.8l0.007,3.205A0.8,0.8,0,0,1,26.209,27.411ZM56.9,22.021h3l-4.51-10.105H52.55L48.055,22.021h2.939l0.8-1.963h4.3ZM52.639,17.95l1.309-3.234,1.31,3.234H52.639Zm8.31-6.035V22.021h2.835V14.182h3.871v7.839h2.852V11.915H60.948Zm19.757,0H71.626v2.267h3.129v7.839h2.835V14.182h3.115V11.915Zm3.979,7.9V17.964H89.21V15.828H84.684v-1.7H89.82V11.915H81.833V22.021h8.177V19.812H84.684Zm12.789-7.9V16.3a4.3,4.3,0,0,1-1.8.346A1.71,1.71,0,0,1,93.749,14.7V11.915H90.911v3.1a3.758,3.758,0,0,0,1.128,2.939A4.721,4.721,0,0,0,95.3,18.976a6.938,6.938,0,0,0,2.168-.391v3.436h2.838V11.915H97.473Zm11.345,10.105h3.245l-3.216-5.226,3.188-4.879h-3.026l-2.431,3.927H105.2V11.915H102.33V22.021H105.2V18.152h1.311Zm12.662,0h3l-4.511-10.105h-2.837l-4.5,10.105h2.939l0.8-1.963h4.308Zm-4.263-4.071,1.311-3.234,1.308,3.234h-2.619Zm-57.5,18.516-0.03-10.105H57.312l-3.491,5.832-3.578-5.832H47.871V36.466h2.647V31.226l2.618,4.245h1.282l2.617-4.36,0.015,5.356h2.663Zm10.458,0h3l-4.51-10.105H65.819L61.324,36.466h2.94l0.8-1.963h4.307ZM65.907,32.4l1.309-3.234L68.525,32.4H65.907Zm10.617-6.034-0.147,4.027a16.524,16.524,0,0,1-.174,2.086,3.115,3.115,0,0,1-.436,1.249,0.994,0.994,0,0,1-.873.448,1.757,1.757,0,0,1-.394-0.044l-0.16,2.339a5.715,5.715,0,0,0,1.31.173,2.5,2.5,0,0,0,1.934-.743,4.371,4.371,0,0,0,.969-2.1,21.3,21.3,0,0,0,.356-3.523l0.06-1.645h2.924v7.838h2.838V26.361H76.524Zm16.015,3.22H90.181v-3.22H87.345V36.466H92.16a4.869,4.869,0,0,0,3.157-.924,3.245,3.245,0,0,0,1.136-2.671,2.991,2.991,0,0,0-1.018-2.462,4.483,4.483,0,0,0-2.9-.83h0Zm-0.567,4.836h-1.79v-2.8h1.79q1.585,0,1.585,1.313a1.407,1.407,0,0,1-.428,1.1,1.655,1.655,0,0,1-1.157.39h0Zm5.6,2.05h2.837V26.361H97.574V36.466Zm16.133-10.105V34.2h-2.633V26.361h-2.836V34.2h-2.664V26.361h-2.835V36.466h13.807V26.361h-2.839ZM127,36.466h3l-4.511-10.105h-2.835l-4.5,10.105H121.1l0.8-1.963H126.2ZM122.74,32.4l1.309-3.234,1.308,3.234H122.74Z" transform="translate(0.026 -5)"></path> </svg> 