<?xml version="1.0" encoding="UTF-8"?> <svg xmlns="http://www.w3.org/2000/svg" id="ok" width="40" height="40" viewBox="0 0 40 40"> <defs> <style> .cls-1 { fill: #b9e2f7; } .cls-2 { fill: #0e1f56; fill-rule: evenodd; } </style> </defs> <rect id="bg" class="cls-1" width="40" height="40" rx="19.188" ry="19.188"></rect> <path id="icon" class="cls-2" d="M26.644,21.931a7.115,7.115,0,0,1-2.559,1.63,12.176,12.176,0,0,1-2.9.642c0.15,0.16.22,0.239,0.314,0.331,1.344,1.332,2.7,2.658,4.035,3.994a1.3,1.3,0,0,1,.3,1.549A1.594,1.594,0,0,1,24.337,31a1.462,1.462,0,0,1-.945-0.476c-1.015-1.006-2.049-1.995-3.042-3.02-0.29-.3-0.429-0.242-0.685.018-1.021,1.036-2.058,2.056-3.1,3.07a1.314,1.314,0,0,1-1.57.277,1.563,1.563,0,0,1-.917-1.442,1.435,1.435,0,0,1,.492-0.967q2-1.964,3.985-3.935c0.088-.087.17-0.179,0.3-0.315a9.163,9.163,0,0,1-4.84-1.7,6.39,6.39,0,0,1-.511-0.414,1.34,1.34,0,0,1-.19-1.925,1.4,1.4,0,0,1,1.832-.405,2.836,2.836,0,0,1,.4.233,8.032,8.032,0,0,0,8.8.079,2.4,2.4,0,0,1,.857-0.436,1.352,1.352,0,0,1,1.54.606A1.272,1.272,0,0,1,26.644,21.931Zm-6.69-2.289a5.826,5.826,0,1,1,5.945-5.75A5.871,5.871,0,0,1,19.954,19.642ZM20,10.967a2.851,2.851,0,1,0,2.888,2.845A2.862,2.862,0,0,0,20,10.967Z"></path> </svg> 