<?xml version="1.0" encoding="UTF-8"?> <svg xmlns="http://www.w3.org/2000/svg" id="vk" width="40" height="40" viewBox="0 0 40 40"> <defs> <style> .cls-1 { fill: #b9e2f7; } .cls-2 { fill: #0e1f56; fill-rule: evenodd; } </style> </defs> <rect id="bg" class="cls-1" width="40" height="40" rx="19.188" ry="19.188"></rect> <path id="icon" class="cls-2" d="M28.954,25.386q-0.089.6-1.668,0.6L26.734,26H26.167c-0.769,0-1.2-.006-1.279-0.019A3.731,3.731,0,0,1,23.13,24.64q-0.639-.783-0.71-0.838a1.37,1.37,0,0,0-.888-0.6H21.5a0.819,0.819,0,0,0-.622.6,3.214,3.214,0,0,0-.159.876,2.437,2.437,0,0,1-.2,1.006,3.385,3.385,0,0,1-1.668.3H18.69a6.061,6.061,0,0,1-3.072-.913,9.392,9.392,0,0,1-2.823-2.758,38.816,38.816,0,0,1-3.5-6.337A3.109,3.109,0,0,1,8.995,15a0.18,0.18,0,0,1,.035-0.13q0.088-.3,1.669-0.3h0.959a3.068,3.068,0,0,1,1.332.168,2.278,2.278,0,0,1,.372.69A20.929,20.929,0,0,0,15.156,18.9q0.3,0.41.462,0.634a0.9,0.9,0,0,0,.586.392h0.088a0.9,0.9,0,0,0,.48-0.858,6.53,6.53,0,0,0,.106-1.249,6.112,6.112,0,0,0-.266-2.33,1.593,1.593,0,0,0-.995-0.615q0.231-.745,1.882-0.82A5.408,5.408,0,0,1,18.264,14q1.971,0,2.291.577a2.11,2.11,0,0,1,.2,1.1v0.28q-0.107,1.566-.106,2.33a3.192,3.192,0,0,0,.035.578q0.072,0.988.479,1.006h0.018a1.107,1.107,0,0,0,.675-0.429,14.362,14.362,0,0,0,1.243-1.92,18.479,18.479,0,0,0,1.047-2.2,1.068,1.068,0,0,1,.427-0.671,8.03,8.03,0,0,1,1.154-.037q1.208,0,2.327-.037h0.088a0.814,0.814,0,0,1,.8.3,1,1,0,0,1,.018.2,3.716,3.716,0,0,1-.532,1.491q-0.462.727-1.19,1.715Q26.291,19.608,26.043,20a1.854,1.854,0,0,0-.32.857v0.075a3.778,3.778,0,0,0,.8,1.1q1.439,1.492,1.847,1.994a2.622,2.622,0,0,1,.639,1.268,0.154,0.154,0,0,1-.054.093h0Z"></path> </svg> 