<?xml version="1.0" encoding="UTF-8"?> <svg xmlns="http://www.w3.org/2000/svg" id="ytb" width="40" height="40" viewBox="0 0 40 40"> <defs> <style> .cls-1 { fill: #b9e2f7; } .cls-2 { fill: #0e1f56; fill-rule: evenodd; } </style> </defs> <rect id="bg" class="cls-1" width="40" height="40" rx="19.188" ry="19.188"></rect> <path id="icon" class="cls-2" d="M31.506,14.5a2.938,2.938,0,0,0-2.115-2.014C27.512,12,20,12,20,12s-7.512,0-9.39.471A3,3,0,0,0,8.494,14.5,28.756,28.756,0,0,0,8,20a28.65,28.65,0,0,0,.494,5.5,2.939,2.939,0,0,0,2.115,2.014C12.507,28,20,28,20,28s7.512,0,9.39-.471a2.939,2.939,0,0,0,2.116-2.014,28.765,28.765,0,0,0,.494-5.5A27.3,27.3,0,0,0,31.506,14.5Zm-13.9,8.922V16.574L23.855,20Z"></path> </svg> 